<svg width="97.207520" height="59.507324" viewBox="0 0 97.2075 59.5073" fill="none" xmlns="http://www.w3.org/2000/svg" xmlns:xlink="http://www.w3.org/1999/xlink">
	<desc>
			Created with Pixso.
	</desc>
	<defs>
		<linearGradient id="paint_linear_739_18192_0" x1="50.267925" y1="27.712517" x2="50.267925" y2="-6.550110" gradientUnits="userSpaceOnUse">
			<stop stop-color="#DEDEDE" stop-opacity="0.000000"/>
			<stop offset="1.000000" stop-color="#A9A9A9" stop-opacity="0.301961"/>
		</linearGradient>
		<linearGradient id="paint_linear_739_18193_0" x1="46.010818" y1="56.733597" x2="46.010818" y2="47.016602" gradientUnits="userSpaceOnUse">
			<stop stop-color="#FFFFFF" stop-opacity="0.000000"/>
			<stop offset="1.000000" stop-color="#96A1C5" stop-opacity="0.372549"/>
		</linearGradient>
		<linearGradient id="paint_linear_739_18194_0" x1="48.603798" y1="59.507378" x2="48.603798" y2="43.550159" gradientUnits="userSpaceOnUse">
			<stop stop-color="#FFFFFF" stop-opacity="0.000000"/>
			<stop offset="1.000000" stop-color="#919191" stop-opacity="0.149020"/>
		</linearGradient>
		<linearGradient id="paint_linear_739_18196_0" x1="48.042011" y1="29.815430" x2="48.042011" y2="35.949757" gradientUnits="userSpaceOnUse">
			<stop stop-color="#5389F5"/>
			<stop offset="1.000000" stop-color="#416FDC"/>
		</linearGradient>
		<linearGradient id="paint_linear_739_18197_0" x1="51.862030" y1="47.647408" x2="51.862030" y2="35.146072" gradientUnits="userSpaceOnUse">
			<stop stop-color="#DCE9FF"/>
			<stop offset="1.000000" stop-color="#B6CFFF"/>
		</linearGradient>
		<linearGradient id="paint_linear_739_18198_0" x1="48.042385" y1="38.904541" x2="48.042385" y2="50.838543" gradientUnits="userSpaceOnUse">
			<stop stop-color="#7CA5F7"/>
			<stop offset="1.000000" stop-color="#C4D6FC"/>
		</linearGradient>
	</defs>
	<rect id=".components/empty-image" width="97.207596" height="59.507374" fill="#FFFFFF" fill-opacity="0"/>
	<g opacity="0.800000">
		<path id="Vector" d="M19.5181 11.1487C20.5176 8.00464 21.4478 6.04712 22.3071 5.27539C24.687 3.1394 27.9775 4.30176 28.6772 4.46826C31.1348 5.05493 30.3354 1.19531 32.4443 0.410889C33.8491 -0.111816 35.0049 0.5271 35.9116 2.32788C36.7148 0.647949 37.938 -0.121582 39.5825 0.015625C42.0488 0.223389 42.9121 8.51147 46.3013 6.69727C49.6914 4.88232 53.8472 4.46753 55.6226 7.16455C56.0063 7.74805 56.1533 6.84277 58.7632 3.7522C61.373 0.660645 63.9751 -0.701416 69.314 1.09863C71.7412 1.91602 73.7378 4.13232 75.3047 7.74658C75.3047 12.905 79.1191 15.959 86.7466 16.9062C98.1895 18.3276 89.3076 30.5669 75.3047 34.1511C61.3013 37.7361 29.0615 39.6711 11.5664 30.614C-0.097168 24.5774 2.55322 18.0884 19.5171 11.1487L19.5181 11.1487Z" fill="url(#paint_linear_739_18192_0)" fill-opacity="1.000000" fill-rule="evenodd"/>
	</g>
	<path id="Vector" d="M69.3071 51.875C69.3071 54.5583 59.8613 56.7336 48.209 56.7336C36.5571 56.7336 27.1113 54.5583 27.1113 51.875C27.1113 49.1919 36.5571 47.0166 48.209 47.0166C59.8613 47.0166 69.3071 49.1919 69.3071 51.875Z" fill="url(#paint_linear_739_18193_0)" fill-opacity="1.000000" fill-rule="evenodd"/>
	<g opacity="0.675000">
		<path id="Vector" d="M83.8281 57.9373C67.9653 61.8958 13.8188 57.3682 8.05566 55.3003C5.25049 54.293 2.72217 52.3994 0.471191 49.6184C0.219238 49.3074 0.0605469 48.9319 0.0141602 48.5352C-0.0322266 48.1384 0.0351562 47.7368 0.208496 47.3765C0.381836 47.0161 0.653809 46.7122 0.993652 46.4993C1.3335 46.2864 1.72656 46.1733 2.12793 46.1736L96.7461 46.1736C98.71 51.3772 94.4043 55.2981 83.8281 57.9373Z" fill="url(#paint_linear_739_18194_0)" fill-opacity="1.000000" fill-rule="evenodd"/>
	</g>
	<path id="Vector" d="M64.3989 38.8545L57.1841 30.4604C57.0132 30.2603 56.8013 30.0989 56.562 29.9875C56.3232 29.8762 56.063 29.8176 55.7993 29.8154L40.2852 29.8154C39.7529 29.8154 39.2471 30.0583 38.8999 30.4604L31.6851 38.8545L31.6851 43.4624L64.3989 43.4624L64.3989 38.8545Z" fill="url(#paint_linear_739_18196_0)" fill-opacity="1.000000" fill-rule="nonzero"/>
	<path id="Vector" d="M62.3545 43.6318L56.0396 36.3208C55.8867 36.1482 55.6987 36.0105 55.4878 35.9165C55.2769 35.8228 55.0479 35.7751 54.8169 35.7771L41.2671 35.7771C40.8022 35.7771 40.3477 35.9692 40.0444 36.3208L33.7295 43.6318L33.7295 47.6475L62.3545 47.6475L62.3545 43.6318Z" fill="url(#paint_linear_739_18197_0)" fill-opacity="1.000000" fill-rule="nonzero"/>
	<path id="Vector" d="M64.3989 48.7432C64.3989 49.3828 64.1094 49.958 63.6528 50.3435L63.5601 50.4185C63.1978 50.6917 62.7554 50.8391 62.3008 50.8386L33.7837 50.8386C33.5259 50.8386 33.2793 50.792 33.0518 50.7065L32.9385 50.6616C32.5654 50.4963 32.2485 50.2273 32.0264 49.8867C31.8037 49.5459 31.6851 49.1484 31.6851 48.7422L31.6851 38.9045L39.6221 38.9045C40.499 38.9045 41.2056 39.6223 41.2056 40.4929L41.2056 40.5044C41.2056 41.3757 41.9199 42.0786 42.7969 42.0786L53.2871 42.0786C53.7085 42.0781 54.1128 41.9116 54.4111 41.6155C54.7095 41.3193 54.8774 40.9175 54.8784 40.4983C54.8784 39.6238 55.5859 38.9045 56.4619 38.9045L64.3999 38.9045L64.3989 48.7432Z" fill="url(#paint_linear_739_18198_0)" fill-opacity="1.000000" fill-rule="nonzero"/>
</svg>
